<svg width="25" height="25" viewBox="0 0 25 25" fill="none" xmlns="http://www.w3.org/2000/svg">
<path d="M0.93934 21.9393C0.353553 22.5251 0.353553 23.4749 0.93934 24.0607C1.52513 24.6464 2.47487 24.6464 3.06066 24.0607L0.93934 21.9393ZM24.5 2C24.5 1.17157 23.8284 0.500001 23 0.500001H9.5C8.67157 0.500001 8 1.17157 8 2C8 2.82843 8.67157 3.5 9.5 3.5L21.5 3.5L21.5 15.5C21.5 16.3284 22.1716 17 23 17C23.8284 17 24.5 16.3284 24.5 15.5V2ZM3.06066 24.0607L24.0607 3.06066L21.9393 0.93934L0.93934 21.9393L3.06066 24.0607Z" fill="#000"/>
</svg>
