<svg width="8" height="17" viewBox="0 0 8 17" fill="none" xmlns="http://www.w3.org/2000/svg">
<path d="M0.00270282 8.48667C0.00218165 8.20344 0.0951334 7.92896 0.265424 7.71088L5.97676 0.437897C6.17064 0.190353 6.44926 0.0346815 6.7513 0.00512925C7.05335 -0.024423 7.35408 0.0745647 7.58735 0.280316C7.82062 0.486067 7.96732 0.781727 7.99517 1.10226C8.02301 1.42278 7.92974 1.74192 7.73585 1.98947L2.61849 8.48667L7.55308 14.9839C7.64797 15.1079 7.71882 15.2505 7.76158 15.4037C7.80434 15.5568 7.81815 15.7174 7.80223 15.8762C7.78631 16.0351 7.74096 16.189 7.6688 16.3292C7.59664 16.4693 7.49909 16.593 7.38174 16.693C7.2643 16.804 7.12651 16.8881 6.97702 16.94C6.82752 16.9918 6.66955 17.0104 6.51298 16.9945C6.35642 16.9785 6.20465 16.9285 6.06717 16.8474C5.92969 16.7663 5.80947 16.656 5.71404 16.5233L0.196888 9.25033C0.0535155 9.02598 -0.0148548 8.7571 0.00270282 8.48667Z" fill="black"/>
</svg>
