<svg width="60" height="59" viewBox="0 0 60 59" fill="none" xmlns="http://www.w3.org/2000/svg">
<path d="M50.7449 9.84671C50.2912 9.10984 49.6414 8.49577 48.8591 8.0644C48.0767 7.63303 47.1884 7.39909 46.2808 7.38539H12.6692L11.1462 1.82282C10.9923 1.28585 10.649 0.81354 10.1722 0.482808C9.69537 0.152075 9.11313 -0.0175904 8.5203 0.00144351H3.26848C2.57205 0.00144351 1.90414 0.26076 1.41169 0.722346C0.919235 1.18393 0.642578 1.80998 0.642578 2.46276C0.642578 3.11554 0.919235 3.74159 1.41169 4.20317C1.90414 4.66476 2.57205 4.92408 3.26848 4.92408H6.52461L13.7721 30.1772C13.926 30.7141 14.2693 31.1865 14.7461 31.5172C15.2229 31.8479 15.8052 32.0176 16.398 31.9986H40.0312C40.5161 31.9972 40.9911 31.87 41.4036 31.631C41.8162 31.3921 42.15 31.0507 42.3682 30.6448L50.9812 14.4986C51.3545 13.7652 51.5283 12.9565 51.4871 12.1448C51.4458 11.3331 51.1909 10.5436 50.7449 9.84671ZM38.4031 27.0759H18.3937L14.1135 12.308H46.2808L38.4031 27.0759Z" fill="#FA9D1B"/>
<path d="M15.5986 44C17.8013 44 19.5869 42.433 19.5869 40.5C19.5869 38.567 17.8013 37 15.5986 37C13.396 37 11.6104 38.567 11.6104 40.5C11.6104 42.433 13.396 44 15.5986 44Z" fill="#FA9D1B"/>
<path d="M42.021 44C43.9483 44 45.5107 42.433 45.5107 40.5C45.5107 38.567 43.9483 37 42.021 37C40.0937 37 38.5312 38.567 38.5312 40.5C38.5312 42.433 40.0937 44 42.021 44Z" fill="#FA9D1B"/>
</svg>
