<svg width="51" height="48" viewBox="0 0 51 48" fill="none" xmlns="http://www.w3.org/2000/svg">
<path d="M33.019 9.73626L17.6482 25.1071C17.3892 25.3662 17.2606 25.6303 17.2164 25.9944L33.019 9.73626ZM33.019 9.73626L40.2636 16.981L24.8927 32.352C24.6337 32.611 24.3695 32.7397 24.0055 32.7838C24.0054 32.7838 24.0054 32.7838 24.0053 32.7838L18.1951 33.4868L18.1949 33.4868C17.7032 33.5464 17.2955 33.4056 16.9449 33.055C16.5947 32.7048 16.4537 32.2971 16.5131 31.8048C16.5131 31.8047 16.5131 31.8046 16.5131 31.8044L17.2164 25.9945L33.019 9.73626ZM44.0917 13.1528L36.8471 5.90811L39.621 3.13415C40.4666 2.28862 41.8517 2.28862 42.6972 3.13415L42.6972 3.13419L46.8659 7.3025C46.8659 7.30252 46.8659 7.30253 46.8659 7.30255C47.7114 8.14809 47.7114 9.53318 46.8659 10.3787L44.0917 13.1528Z" stroke="#FA9D1B" stroke-width="3"/>
<path d="M25.5 2H14C7.37258 2 2 7.37258 2 14V34C2 40.6274 7.37258 46 14 46H37C43.6274 46 49 40.6274 49 34V24" stroke="#FA9D1B" stroke-width="3" stroke-linecap="round"/>
</svg>
