<svg width="22" height="22" viewBox="0 0 22 22" fill="none" xmlns="http://www.w3.org/2000/svg">
<path fill-rule="evenodd" clip-rule="evenodd" d="M11.6593 4.28014L17.7198 10.3406L7.08752 20.9729C6.76628 21.2941 6.39473 21.4749 5.94372 21.5295L2.18403 21.9844C1.56956 22.0589 1.00973 21.8654 0.572152 21.4278C0.134576 20.9902 -0.0587129 20.4304 0.0155065 19.8159L0.470613 16.0562C0.525253 15.6052 0.70602 15.2336 1.02726 14.9124L11.6595 4.28014H11.6593ZM12.7637 3.17572L18.8242 9.23622L21.3055 6.75488C22.2317 5.82873 22.2317 4.31793 21.3055 3.39178L18.6081 0.694612C17.682 -0.231537 16.1712 -0.231537 15.2451 0.694612L12.7637 3.17595V3.17572Z" fill="#D9D9D9"/>
</svg>
