<svg width="34" height="34" viewBox="0 0 34 34" fill="none" xmlns="http://www.w3.org/2000/svg">
<g id="&#240;&#159;&#166;&#134; icon &#34;search outline&#34;">
<path id="Vector" d="M29.2125 27.2829L24.4167 22.5012C25.964 20.5299 26.8036 18.0955 26.8005 15.5895C26.8005 13.3576 26.1387 11.1759 24.8987 9.32018C23.6588 7.46447 21.8964 6.01812 19.8345 5.16403C17.7725 4.30994 15.5036 4.08647 13.3146 4.52189C11.1257 4.9573 9.11498 6.03203 7.53683 7.61018C5.95868 9.18834 4.88394 11.199 4.44853 13.388C4.01312 15.5769 4.23659 17.8459 5.09068 19.9078C5.94477 21.9698 7.39112 23.7322 9.24683 24.9721C11.1025 26.212 13.2843 26.8739 15.5161 26.8739C18.0222 26.877 20.4565 26.0374 22.4278 24.49L27.2096 29.2859C27.3407 29.4181 27.4967 29.5231 27.6686 29.5947C27.8405 29.6663 28.0248 29.7031 28.2111 29.7031C28.3973 29.7031 28.5816 29.6663 28.7535 29.5947C28.9254 29.5231 29.0814 29.4181 29.2125 29.2859C29.3448 29.1548 29.4497 28.9988 29.5213 28.8269C29.5929 28.655 29.6298 28.4706 29.6298 28.2844C29.6298 28.0982 29.5929 27.9138 29.5213 27.742C29.4497 27.5701 29.3448 27.4141 29.2125 27.2829ZM7.0528 15.5895C7.0528 13.9156 7.54917 12.2793 8.47913 10.8875C9.40909 9.49572 10.7309 8.41096 12.2773 7.77039C13.8238 7.12982 15.5255 6.96222 17.1672 7.28878C18.8089 7.61534 20.3169 8.42139 21.5006 9.605C22.6842 10.7886 23.4902 12.2966 23.8168 13.9384C24.1433 15.5801 23.9757 17.2818 23.3352 18.8282C22.6946 20.3747 21.6098 21.6965 20.2181 22.6264C18.8263 23.5564 17.19 24.0528 15.5161 24.0528C13.2715 24.0528 11.1188 23.1611 9.53165 21.5739C7.94447 19.9867 7.0528 17.8341 7.0528 15.5895Z" fill="black"/>
</g>
</svg>
