<svg width="20" height="20" viewBox="0 0 20 20" fill="none" xmlns="http://www.w3.org/2000/svg">
<path d="M19.515 10.5746L15.2494 14.8402C15.097 14.9926 14.8904 15.0782 14.6749 15.0781C14.4594 15.0781 14.2527 14.9925 14.1003 14.8401C13.948 14.6878 13.8624 14.4811 13.8624 14.2656C13.8624 14.0501 13.948 13.8434 14.1004 13.6911L16.979 10.8125H7.5625C7.34701 10.8125 7.14035 10.7269 6.98798 10.5745C6.8356 10.4222 6.75 10.2155 6.75 10C6.75 9.78451 6.8356 9.57785 6.98798 9.42548C7.14035 9.2731 7.34701 9.1875 7.5625 9.1875H16.979L14.1004 6.30894C13.948 6.15657 13.8624 5.9499 13.8624 5.73441C13.8624 5.51892 13.948 5.31225 14.1003 5.15986C14.2527 5.00748 14.4594 4.92187 14.6749 4.92186C14.8904 4.92185 15.097 5.00744 15.2494 5.15981L19.515 9.42544C19.6674 9.57783 19.753 9.7845 19.753 10C19.753 10.2155 19.6674 10.4222 19.515 10.5746ZM9.1875 18.125H1.875V1.875H9.1875C9.40299 1.875 9.60965 1.7894 9.76202 1.63702C9.9144 1.48465 10 1.27799 10 1.0625C10 0.847012 9.9144 0.640349 9.76202 0.487976C9.60965 0.335603 9.40299 0.25 9.1875 0.25H1.875C1.44417 0.250493 1.03114 0.421856 0.726496 0.726496C0.421856 1.03114 0.250493 1.44417 0.25 1.875V18.125C0.250493 18.5558 0.421856 18.9689 0.726496 19.2735C1.03114 19.5781 1.44417 19.7495 1.875 19.75H9.1875C9.40299 19.75 9.60965 19.6644 9.76202 19.512C9.9144 19.3597 10 19.153 10 18.9375C10 18.722 9.9144 18.5153 9.76202 18.363C9.60965 18.2106 9.40299 18.125 9.1875 18.125Z" fill="#B9B9B9"/>
</svg>
