<svg width="340" height="279" viewBox="0 0 340 279" fill="none" xmlns="http://www.w3.org/2000/svg">
<path d="M23.1181 128.508C21.3226 129.67 17.3514 132.69 15.8306 135.479L98.8453 262.535C113.737 251.023 155.054 227.302 201.188 224.513L202.772 220.078M82.0522 77.8119H102.647M93.4588 40.4236L114.371 51.1965M121.658 13.1745L131.798 31.5518M159.997 2.71844L157.463 23.3137" stroke="black" stroke-width="4" stroke-linecap="round" stroke-linejoin="round"/>
<path d="M18.999 122.171C55.5001 88.4581 103.704 89.7466 123.243 94.605L203.406 219.761C161.582 213.931 117.539 236.343 100.746 248.277L18.999 122.171Z" stroke="black" stroke-width="4" stroke-linecap="round" stroke-linejoin="round"/>
<path d="M21.8508 126.607C16.1475 128.614 4.36064 133.071 2.83976 134.845C1.31888 136.619 2.20606 141.076 2.83976 143.083L87.4387 274.576C89.023 275.843 93.142 277.998 96.9442 276.477L201.822 233.068L200.871 224.197M122.926 94.605C122.926 90.1691 124.257 79.1427 129.58 70.5244L136.867 90.486H142.254L147.64 104.744L154.294 100.942L152.076 116.151H176.157L171.404 130.726H181.543L191.999 158.926L201.822 164.946L198.019 185.858L208.792 178.57L205.307 191.244L214.179 189.026C211.222 190.505 203.406 199.799 203.406 220.078" stroke="black" stroke-width="4" stroke-linecap="round" stroke-linejoin="round"/>
<path d="M134.966 84.7826C139.191 77.1782 151 63.5 168 57.5M202.772 220.078C203.334 219.37 203.944 218.629 204.602 217.86M289.589 139.281L307.333 164.946C305.736 165.092 304.152 165.266 302.58 165.465M204.602 217.86L206.628 220.078M204.602 217.86C218.705 201.368 254.74 171.529 302.58 165.465M297.51 136.746C307.122 150.159 326.724 177.556 328.245 179.838C329.766 182.119 327.611 187.759 326.344 190.294L213.862 227.999L206.628 220.078M206.628 220.078C220.023 206.77 258.918 178.634 307.333 172.55L302.58 165.465" stroke="black" stroke-width="4" stroke-linecap="round" stroke-linejoin="round"/>
<path d="M169.5 61.5L165.5 42C218.3 8.00002 254.167 1.50002 265.5 2.50002L338 125C301.2 129.8 264 150.667 250 160.5L238.5 164L243 151L227.5 155.5L234 135.5L227.5 130L216.5 98.5L203 101.5L210.5 88H188.5V74L182.5 77.5L176.5 61.5H169.5Z" stroke="#FA9D1B" stroke-width="4" stroke-linecap="round" stroke-linejoin="round"/>
<path d="M215.5 69.5L238.5 76.5M231.5 62.5L224.5 84.5M251 55L275 62.5M268 47L259.5 69.5" stroke="#FA9D1B" stroke-width="4" stroke-linecap="round" stroke-linejoin="round"/>
<path d="M247 98.5C248.167 90.1667 255.6 76 276 86" stroke="#FA9D1B" stroke-width="4" stroke-linecap="round" stroke-linejoin="round"/>
</svg>
