<svg xmlns="http://www.w3.org/2000/svg" width="59" height="59" viewBox="0 0 59 59" fill="none">
  <ellipse cx="29.5" cy="29.9401" rx="29.5" ry="29.0597" fill="black"/>
  <path fill-rule="evenodd" clip-rule="evenodd" d="M29.5002 9.8335C34.2441 9.8335 38.0866 13.6656 38.0866 18.3968C38.0866 23.1188 34.2441 26.951 29.5002 26.951C24.7654 26.951 20.9229 23.1188 20.9229 18.3968C20.9229 13.6656 24.7654 9.8335 29.5002 9.8335ZM44.6972 44.3772C44.6972 44.3227 44.6972 44.3318 44.6972 44.3409C44.6972 46.5112 42.9216 48.2729 40.7545 48.2729H18.2459C16.0788 48.2729 14.3032 46.5112 14.3032 44.3409C14.3032 44.3319 14.3032 44.3227 14.3032 44.3772C14.3032 44.3772 14.3032 44.3136 14.3032 44.241C14.3032 35.8684 21.105 29.085 29.5002 29.085C37.8954 29.085 44.6972 35.8684 44.6972 44.241C44.6972 44.3136 44.6972 44.3772 44.6972 44.3772Z" fill="white"/>
</svg>