<svg width="22" height="26" viewBox="0 0 22 26" fill="none" xmlns="http://www.w3.org/2000/svg">
<path d="M19.0783 15.8251V3.02383C19.079 2.22387 18.7624 1.45629 18.198 0.889433C17.6335 0.322574 16.8673 0.00271374 16.0673 0H3.01102C2.21106 0.00271374 1.44483 0.322574 0.880379 0.889433C0.315922 1.45629 -0.000682009 2.22387 1.10313e-06 3.02383V19.6293C-0.000682009 20.4292 0.315922 21.1968 0.880379 21.7637C1.44483 22.3305 2.21106 22.6504 3.01102 22.6531H12.1325C12.4805 23.4058 13.0044 24.0637 13.6599 24.5715C14.3155 25.0793 15.0835 25.422 15.8992 25.5709C16.715 25.7197 17.5546 25.6702 18.3472 25.4265C19.1398 25.1829 19.8622 24.7523 20.4536 24.171C21.0449 23.5897 21.4878 22.8747 21.745 22.0864C22.0021 21.2981 22.066 20.4595 21.9312 19.6413C21.7964 18.8231 21.4668 18.0493 20.9703 17.3852C20.4738 16.721 19.8249 16.186 19.0783 15.8251ZM3.01102 21.3718C2.55078 21.3695 2.11025 21.1847 1.78601 20.8581C1.46177 20.5314 1.28026 20.0895 1.28129 19.6293V3.02383C1.28026 2.56358 1.46177 2.12171 1.78601 1.79506C2.11025 1.46842 2.55078 1.28366 3.01102 1.28128H16.0673C16.5276 1.28366 16.9681 1.46842 17.2923 1.79506C17.6166 2.12171 17.7981 2.56358 17.797 3.02383V15.3882C17.4737 15.3248 17.1451 15.2917 16.8156 15.2896C15.4412 15.2913 14.1236 15.838 13.1518 16.8098C12.1799 17.7817 11.6332 19.0993 11.6315 20.4737C11.6354 20.7773 11.6663 21.08 11.7238 21.3782L3.01102 21.3718ZM16.8156 24.37C16.0437 24.37 15.2891 24.1411 14.6473 23.7123C14.0055 23.2835 13.5053 22.6739 13.2099 21.9608C12.9145 21.2476 12.8372 20.4629 12.9878 19.7058C13.1384 18.9488 13.5101 18.2534 14.0559 17.7076C14.6017 17.1617 15.2971 16.79 16.0542 16.6394C16.8113 16.4889 17.596 16.5661 18.3091 16.8615C19.0223 17.1569 19.6318 17.6572 20.0606 18.299C20.4895 18.9408 20.7184 19.6953 20.7184 20.4672C20.7174 21.502 20.3058 22.4941 19.5742 23.2258C18.8425 23.9575 17.8504 24.369 16.8156 24.37ZM17.4562 18.5966V20.4672C17.4562 20.6372 17.3887 20.8001 17.2686 20.9202C17.1484 21.0404 16.9855 21.1079 16.8156 21.1079H15.5856C15.4156 21.1079 15.2527 21.0404 15.1325 20.9202C15.0124 20.8001 14.9449 20.6372 14.9449 20.4672C14.9449 20.2973 15.0124 20.1344 15.1325 20.0142C15.2527 19.8941 15.4156 19.8266 15.5856 19.8266H16.1749V18.5914C16.1749 18.4215 16.2424 18.2586 16.3626 18.1384C16.4827 18.0183 16.6457 17.9508 16.8156 17.9508C16.9855 17.9508 17.1484 18.0183 17.2686 18.1384C17.3887 18.2586 17.4562 18.4215 17.4562 18.5914V18.5966ZM4.7651 6.41924C4.7651 6.24933 4.8326 6.08638 4.95274 5.96623C5.07288 5.84609 5.23583 5.7786 5.40574 5.7786H13.6726C13.8425 5.7786 14.0055 5.84609 14.1256 5.96623C14.2457 6.08638 14.3132 6.24933 14.3132 6.41924C14.3132 6.58915 14.2457 6.7521 14.1256 6.87224C14.0055 6.99238 13.8425 7.05988 13.6726 7.05988H5.40574C5.23583 7.05988 5.07288 6.99238 4.95274 6.87224C4.8326 6.7521 4.7651 6.58915 4.7651 6.41924ZM4.7651 9.68908C4.7651 9.51917 4.8326 9.35622 4.95274 9.23607C5.07288 9.11593 5.23583 9.04843 5.40574 9.04843H13.6726C13.8425 9.04843 14.0055 9.11593 14.1256 9.23607C14.2457 9.35622 14.3132 9.51917 14.3132 9.68908C14.3132 9.85899 14.2457 10.0219 14.1256 10.1421C14.0055 10.2622 13.8425 10.3297 13.6726 10.3297H5.40574C5.2365 10.3297 5.07413 10.2628 4.95409 10.1434C4.83406 10.0241 4.76612 9.86216 4.7651 9.69292V9.68908ZM4.7651 12.9564C4.7651 12.7864 4.8326 12.6235 4.95274 12.5034C5.07288 12.3832 5.23583 12.3157 5.40574 12.3157H13.6726C13.8425 12.3157 14.0055 12.3832 14.1256 12.5034C14.2457 12.6235 14.3132 12.7864 14.3132 12.9564C14.3132 13.1263 14.2457 13.2892 14.1256 13.4094C14.0055 13.5295 13.8425 13.597 13.6726 13.597H5.40574C5.2365 13.597 5.07413 13.53 4.95409 13.4107C4.83406 13.2914 4.76612 13.1294 4.7651 12.9602V12.9564ZM11.7686 16.2339C11.7686 16.4038 11.7011 16.5667 11.581 16.6869C11.4608 16.807 11.2979 16.8745 11.128 16.8745H5.40062C5.23071 16.8745 5.06776 16.807 4.94761 16.6869C4.82747 16.5667 4.75997 16.4038 4.75997 16.2339C4.75997 16.064 4.82747 15.901 4.94761 15.7809C5.06776 15.6607 5.23071 15.5932 5.40062 15.5932H11.128C11.2979 15.5932 11.4608 15.6607 11.581 15.7809C11.7011 15.901 11.7686 16.064 11.7686 16.2339Z" fill="#FA9D1B"/>
</svg>
