<svg width="22" height="22" viewBox="0 0 22 22" fill="none" xmlns="http://www.w3.org/2000/svg">
<mask id="path-1-inside-1_244_243" fill="white">
<path d="M21.252 8.305L19.173 7.612L20.152 5.654C20.2512 5.44906 20.2844 5.21836 20.247 4.99375C20.2096 4.76914 20.1033 4.56168 19.943 4.4L17.6 2.057C17.4375 1.8943 17.228 1.78663 17.0011 1.74914C16.7742 1.71165 16.5412 1.74623 16.335 1.848L14.377 2.827L13.684 0.748004C13.6108 0.531295 13.4719 0.342792 13.2866 0.208726C13.1012 0.0746611 12.8787 0.00170244 12.65 3.66689e-06H9.35C9.11939 -0.000591611 8.89443 0.0713045 8.70691 0.20553C8.51939 0.339755 8.3788 0.52952 8.305 0.748004L7.612 2.827L5.654 1.848C5.44906 1.74876 5.21836 1.71557 4.99375 1.753C4.76914 1.79044 4.56168 1.89666 4.4 2.057L2.057 4.4C1.8943 4.56254 1.78663 4.772 1.74914 4.9989C1.71165 5.22581 1.74623 5.45876 1.848 5.665L2.827 7.623L0.748004 8.316C0.531295 8.38919 0.342792 8.52811 0.208726 8.71344C0.0746611 8.89876 0.00170244 9.12127 3.66689e-06 9.35V12.65C-0.000591611 12.8806 0.0713045 13.1056 0.20553 13.2931C0.339755 13.4806 0.52952 13.6212 0.748004 13.695L2.827 14.388L1.848 16.346C1.74876 16.5509 1.71557 16.7816 1.753 17.0062C1.79044 17.2309 1.89666 17.4383 2.057 17.6L4.4 19.943C4.56254 20.1057 4.772 20.2134 4.9989 20.2509C5.22581 20.2883 5.45876 20.2538 5.665 20.152L7.623 19.173L8.316 21.252C8.3898 21.4705 8.53039 21.6602 8.71791 21.7945C8.90543 21.9287 9.13039 22.0006 9.361 22H12.661C12.8916 22.0006 13.1166 21.9287 13.3041 21.7945C13.4916 21.6602 13.6322 21.4705 13.706 21.252L14.399 19.173L16.357 20.152C16.5606 20.2487 16.7891 20.2806 17.0114 20.2432C17.2337 20.2058 17.4392 20.101 17.6 19.943L19.943 17.6C20.1057 17.4375 20.2134 17.228 20.2509 17.0011C20.2883 16.7742 20.2538 16.5412 20.152 16.335L19.173 14.377L21.252 13.684C21.4687 13.6108 21.6572 13.4719 21.7913 13.2866C21.9253 13.1012 21.9983 12.8787 22 12.65V9.35C22.0006 9.11939 21.9287 8.89443 21.7945 8.70691C21.6602 8.51939 21.4705 8.3788 21.252 8.305ZM19.8 11.858L18.48 12.298C18.1765 12.3965 17.898 12.5598 17.6639 12.7766C17.4297 12.9934 17.2456 13.2586 17.1242 13.5537C17.0028 13.8489 16.9471 14.1668 16.9608 14.4857C16.9746 14.8045 17.0576 15.1165 17.204 15.4L17.831 16.654L16.621 17.864L15.4 17.204C15.1179 17.0635 14.8089 16.9852 14.4939 16.9744C14.179 16.9637 13.8654 17.0207 13.5743 17.1417C13.2833 17.2627 13.0217 17.4448 12.8072 17.6757C12.5927 17.9066 12.4303 18.1809 12.331 18.48L11.891 19.8H10.142L9.702 18.48C9.60354 18.1765 9.44023 17.898 9.22339 17.6639C9.00655 17.4297 8.74138 17.2456 8.44626 17.1242C8.15115 17.0028 7.83316 16.9471 7.51435 16.9608C7.19554 16.9746 6.88354 17.0576 6.6 17.204L5.346 17.831L4.136 16.621L4.796 15.4C4.94241 15.1165 5.02537 14.8045 5.03915 14.4857C5.05293 14.1668 4.99719 13.8489 4.87579 13.5537C4.7544 13.2586 4.57026 12.9934 4.33614 12.7766C4.10203 12.5598 3.82354 12.3965 3.52 12.298L2.2 11.858V10.142L3.52 9.702C3.82354 9.60354 4.10203 9.44023 4.33614 9.22339C4.57026 9.00655 4.7544 8.74138 4.87579 8.44626C4.99719 8.15115 5.05293 7.83316 5.03915 7.51435C5.02537 7.19554 4.94241 6.88354 4.796 6.6L4.169 5.379L5.379 4.169L6.6 4.796C6.88354 4.94241 7.19554 5.02537 7.51435 5.03915C7.83316 5.05293 8.15115 4.99719 8.44626 4.87579C8.74138 4.7544 9.00655 4.57026 9.22339 4.33614C9.44023 4.10203 9.60354 3.82354 9.702 3.52L10.142 2.2H11.858L12.298 3.52C12.3965 3.82354 12.5598 4.10203 12.7766 4.33614C12.9934 4.57026 13.2586 4.7544 13.5537 4.87579C13.8489 4.99719 14.1668 5.05293 14.4857 5.03915C14.8045 5.02537 15.1165 4.94241 15.4 4.796L16.654 4.169L17.864 5.379L17.204 6.6C17.0635 6.88209 16.9852 7.19108 16.9744 7.50606C16.9637 7.82103 17.0207 8.13464 17.1417 8.42565C17.2627 8.71666 17.4448 8.97828 17.6757 9.19279C17.9066 9.4073 18.1809 9.5697 18.48 9.669L19.8 10.109V11.858ZM11 6.6C10.1298 6.6 9.27907 6.85806 8.55549 7.34154C7.83192 7.82501 7.26796 8.5122 6.93493 9.31619C6.60191 10.1202 6.51477 11.0049 6.68455 11.8584C6.85432 12.7119 7.27338 13.4959 7.88873 14.1113C8.50408 14.7266 9.28809 15.1457 10.1416 15.3155C10.9951 15.4852 11.8798 15.3981 12.6838 15.0651C13.4878 14.732 14.175 14.1681 14.6585 13.4445C15.1419 12.7209 15.4 11.8702 15.4 11C15.4 9.83305 14.9364 8.71389 14.1113 7.88873C13.2861 7.06357 12.167 6.6 11 6.6ZM11 13.2C10.5649 13.2 10.1395 13.071 9.77775 12.8292C9.41596 12.5875 9.13398 12.2439 8.96747 11.8419C8.80095 11.4399 8.75739 10.9976 8.84227 10.5708C8.92716 10.144 9.13669 9.75204 9.44437 9.44437C9.75204 9.13669 10.144 8.92716 10.5708 8.84227C10.9976 8.75739 11.4399 8.80095 11.8419 8.96747C12.2439 9.13398 12.5875 9.41596 12.8292 9.77775C13.071 10.1395 13.2 10.5649 13.2 11C13.2 11.5835 12.9682 12.1431 12.5556 12.5556C12.1431 12.9682 11.5835 13.2 11 13.2Z"/>
</mask>
<path d="M21.252 8.305L19.173 7.612L20.152 5.654C20.2512 5.44906 20.2844 5.21836 20.247 4.99375C20.2096 4.76914 20.1033 4.56168 19.943 4.4L17.6 2.057C17.4375 1.8943 17.228 1.78663 17.0011 1.74914C16.7742 1.71165 16.5412 1.74623 16.335 1.848L14.377 2.827L13.684 0.748004C13.6108 0.531295 13.4719 0.342792 13.2866 0.208726C13.1012 0.0746611 12.8787 0.00170244 12.65 3.66689e-06H9.35C9.11939 -0.000591611 8.89443 0.0713045 8.70691 0.20553C8.51939 0.339755 8.3788 0.52952 8.305 0.748004L7.612 2.827L5.654 1.848C5.44906 1.74876 5.21836 1.71557 4.99375 1.753C4.76914 1.79044 4.56168 1.89666 4.4 2.057L2.057 4.4C1.8943 4.56254 1.78663 4.772 1.74914 4.9989C1.71165 5.22581 1.74623 5.45876 1.848 5.665L2.827 7.623L0.748004 8.316C0.531295 8.38919 0.342792 8.52811 0.208726 8.71344C0.0746611 8.89876 0.00170244 9.12127 3.66689e-06 9.35V12.65C-0.000591611 12.8806 0.0713045 13.1056 0.20553 13.2931C0.339755 13.4806 0.52952 13.6212 0.748004 13.695L2.827 14.388L1.848 16.346C1.74876 16.5509 1.71557 16.7816 1.753 17.0062C1.79044 17.2309 1.89666 17.4383 2.057 17.6L4.4 19.943C4.56254 20.1057 4.772 20.2134 4.9989 20.2509C5.22581 20.2883 5.45876 20.2538 5.665 20.152L7.623 19.173L8.316 21.252C8.3898 21.4705 8.53039 21.6602 8.71791 21.7945C8.90543 21.9287 9.13039 22.0006 9.361 22H12.661C12.8916 22.0006 13.1166 21.9287 13.3041 21.7945C13.4916 21.6602 13.6322 21.4705 13.706 21.252L14.399 19.173L16.357 20.152C16.5606 20.2487 16.7891 20.2806 17.0114 20.2432C17.2337 20.2058 17.4392 20.101 17.6 19.943L19.943 17.6C20.1057 17.4375 20.2134 17.228 20.2509 17.0011C20.2883 16.7742 20.2538 16.5412 20.152 16.335L19.173 14.377L21.252 13.684C21.4687 13.6108 21.6572 13.4719 21.7913 13.2866C21.9253 13.1012 21.9983 12.8787 22 12.65V9.35C22.0006 9.11939 21.9287 8.89443 21.7945 8.70691C21.6602 8.51939 21.4705 8.3788 21.252 8.305ZM19.8 11.858L18.48 12.298C18.1765 12.3965 17.898 12.5598 17.6639 12.7766C17.4297 12.9934 17.2456 13.2586 17.1242 13.5537C17.0028 13.8489 16.9471 14.1668 16.9608 14.4857C16.9746 14.8045 17.0576 15.1165 17.204 15.4L17.831 16.654L16.621 17.864L15.4 17.204C15.1179 17.0635 14.8089 16.9852 14.4939 16.9744C14.179 16.9637 13.8654 17.0207 13.5743 17.1417C13.2833 17.2627 13.0217 17.4448 12.8072 17.6757C12.5927 17.9066 12.4303 18.1809 12.331 18.48L11.891 19.8H10.142L9.702 18.48C9.60354 18.1765 9.44023 17.898 9.22339 17.6639C9.00655 17.4297 8.74138 17.2456 8.44626 17.1242C8.15115 17.0028 7.83316 16.9471 7.51435 16.9608C7.19554 16.9746 6.88354 17.0576 6.6 17.204L5.346 17.831L4.136 16.621L4.796 15.4C4.94241 15.1165 5.02537 14.8045 5.03915 14.4857C5.05293 14.1668 4.99719 13.8489 4.87579 13.5537C4.7544 13.2586 4.57026 12.9934 4.33614 12.7766C4.10203 12.5598 3.82354 12.3965 3.52 12.298L2.2 11.858V10.142L3.52 9.702C3.82354 9.60354 4.10203 9.44023 4.33614 9.22339C4.57026 9.00655 4.7544 8.74138 4.87579 8.44626C4.99719 8.15115 5.05293 7.83316 5.03915 7.51435C5.02537 7.19554 4.94241 6.88354 4.796 6.6L4.169 5.379L5.379 4.169L6.6 4.796C6.88354 4.94241 7.19554 5.02537 7.51435 5.03915C7.83316 5.05293 8.15115 4.99719 8.44626 4.87579C8.74138 4.7544 9.00655 4.57026 9.22339 4.33614C9.44023 4.10203 9.60354 3.82354 9.702 3.52L10.142 2.2H11.858L12.298 3.52C12.3965 3.82354 12.5598 4.10203 12.7766 4.33614C12.9934 4.57026 13.2586 4.7544 13.5537 4.87579C13.8489 4.99719 14.1668 5.05293 14.4857 5.03915C14.8045 5.02537 15.1165 4.94241 15.4 4.796L16.654 4.169L17.864 5.379L17.204 6.6C17.0635 6.88209 16.9852 7.19108 16.9744 7.50606C16.9637 7.82103 17.0207 8.13464 17.1417 8.42565C17.2627 8.71666 17.4448 8.97828 17.6757 9.19279C17.9066 9.4073 18.1809 9.5697 18.48 9.669L19.8 10.109V11.858ZM11 6.6C10.1298 6.6 9.27907 6.85806 8.55549 7.34154C7.83192 7.82501 7.26796 8.5122 6.93493 9.31619C6.60191 10.1202 6.51477 11.0049 6.68455 11.8584C6.85432 12.7119 7.27338 13.4959 7.88873 14.1113C8.50408 14.7266 9.28809 15.1457 10.1416 15.3155C10.9951 15.4852 11.8798 15.3981 12.6838 15.0651C13.4878 14.732 14.175 14.1681 14.6585 13.4445C15.1419 12.7209 15.4 11.8702 15.4 11C15.4 9.83305 14.9364 8.71389 14.1113 7.88873C13.2861 7.06357 12.167 6.6 11 6.6ZM11 13.2C10.5649 13.2 10.1395 13.071 9.77775 12.8292C9.41596 12.5875 9.13398 12.2439 8.96747 11.8419C8.80095 11.4399 8.75739 10.9976 8.84227 10.5708C8.92716 10.144 9.13669 9.75204 9.44437 9.44437C9.75204 9.13669 10.144 8.92716 10.5708 8.84227C10.9976 8.75739 11.4399 8.80095 11.8419 8.96747C12.2439 9.13398 12.5875 9.41596 12.8292 9.77775C13.071 10.1395 13.2 10.5649 13.2 11C13.2 11.5835 12.9682 12.1431 12.5556 12.5556C12.1431 12.9682 11.5835 13.2 11 13.2Z" fill="#FA9D1B" stroke="white" stroke-width="0.6" mask="url(#path-1-inside-1_244_243)"/>
</svg>
