<svg width="23" height="20" viewBox="0 0 23 20" fill="none" xmlns="http://www.w3.org/2000/svg">
<path d="M11.166 19.031C11.0213 19.0318 10.8778 19.0041 10.7438 18.9493C10.6098 18.8946 10.4879 18.8139 10.3851 18.712L1.83926 10.1552C0.767303 9.07199 0.166016 7.60962 0.166016 6.0857C0.166016 4.56178 0.767303 3.0994 1.83926 2.01624C2.91961 0.938947 4.38304 0.333984 5.90872 0.333984C7.4344 0.333984 8.89783 0.938947 9.97817 2.01624L11.166 3.20408L12.3539 2.01624C13.4342 0.938947 14.8976 0.333984 16.4233 0.333984C17.949 0.333984 19.4124 0.938947 20.4928 2.01624C21.5647 3.0994 22.166 4.56178 22.166 6.0857C22.166 7.60962 21.5647 9.07199 20.4928 10.1552L11.9469 18.712C11.8441 18.8139 11.7223 18.8946 11.5883 18.9493C11.4543 19.0041 11.3108 19.0318 11.166 19.031Z" fill="#FA9D1B"/>
</svg>
