<svg width="64" height="38" viewBox="0 0 64 38" fill="none" xmlns="http://www.w3.org/2000/svg">
<path fill-rule="evenodd" clip-rule="evenodd" d="M57.9618 20.3549C61.7678 24.6625 63.8517 27.7632 63.8517 27.7632C44.5318 28.4102 32.1248 37.2925 32.1248 37.2925C32.1248 37.2925 41.3437 27.857 57.9618 20.3549Z" fill="#FFB347"/>
<path fill-rule="evenodd" clip-rule="evenodd" d="M32.1248 37.2925C32.1248 37.2925 36.132 24.582 47.731 10.3258C50.602 12.7477 53.1365 15.1917 55.2959 17.4525C39.9685 26.9226 32.1248 37.2925 32.1248 37.2925Z" fill="#FA9D1B"/>
<path fill-rule="evenodd" clip-rule="evenodd" d="M32.1248 37.2925C32.1248 37.2925 22.9058 27.857 6.28768 20.3549C2.48168 24.6625 0.397797 27.7632 0.397797 27.7632C19.7176 28.4102 32.1248 37.2925 32.1248 37.2925Z" fill="#FFB347"/>
<path fill-rule="evenodd" clip-rule="evenodd" d="M16.5183 10.3258C13.6474 12.7477 11.1129 15.1917 8.95344 17.4525C24.2809 26.9226 32.1248 37.2925 32.1248 37.2925C32.1248 37.2925 28.1173 24.582 16.5183 10.3258Z" fill="#FA9D1B"/>
<path fill-rule="evenodd" clip-rule="evenodd" d="M32.1246 0C36.7105 2.23426 40.8982 4.95974 44.6207 7.82006C34.5472 23.7574 32.1248 37.2925 32.1248 37.2925C32.1248 37.2925 29.702 23.7574 19.6284 7.82006C23.351 4.95974 27.5387 2.23426 32.1246 0Z" fill="#F58216"/>
</svg>
