<svg width="42" height="42" viewBox="0 0 42 42" fill="none" xmlns="http://www.w3.org/2000/svg">
<path d="M21.0057 34.0002V34.0001L20.9942 34.0002C20.9256 34.0005 20.8577 33.9875 20.7944 33.9617C20.7318 33.9362 20.675 33.8989 20.6272 33.852C20.6267 33.8516 20.6263 33.8512 20.6259 33.8508L8.84954 22.1107C8.84903 22.1102 8.84853 22.1097 8.84803 22.1092C7.55675 20.8093 6.83325 19.0557 6.83325 17.2293C6.83325 15.4032 7.55644 13.65 8.84721 12.3502C10.1488 11.0592 11.9121 10.3335 13.7512 10.3335C15.5913 10.3335 17.3554 11.0599 18.6571 12.352C18.6573 12.3522 18.6574 12.3523 18.6576 12.3525L20.2944 13.9821L20.9999 14.6846L21.7055 13.9821L23.3423 12.3525C23.3424 12.3524 23.3425 12.3523 23.3426 12.3522C24.6443 11.0599 26.4085 10.3335 28.2486 10.3335C30.0878 10.3335 31.851 11.0592 33.1526 12.3501C34.4434 13.6499 35.1666 15.4032 35.1666 17.2293C35.1666 19.0557 34.4431 20.8093 33.1519 22.1092C33.1513 22.1097 33.1508 22.1102 33.1503 22.1107L21.374 33.8508C21.3735 33.8512 21.3731 33.8516 21.3727 33.852C21.3249 33.8989 21.2681 33.9362 21.2054 33.9617C21.1421 33.9875 21.0743 34.0005 21.0057 34.0002Z" stroke="#FA9D1B" stroke-width="2"/>
</svg>
