<svg width="42" height="42" viewBox="0 0 42 42" fill="none" xmlns="http://www.w3.org/2000/svg">
<path d="M20.9999 35.0001C20.8003 35.0013 20.6025 34.9632 20.4177 34.8881C20.233 34.8129 20.0649 34.7022 19.9232 34.5623L8.14031 22.8157C6.6623 21.3288 5.83325 19.3213 5.83325 17.2293C5.83325 15.1373 6.6623 13.1298 8.14031 11.6428C9.62987 10.164 11.6476 9.3335 13.7512 9.3335C15.8548 9.3335 17.8726 10.164 19.3621 11.6428L20.9999 13.2735L22.6377 11.6428C24.1273 10.164 26.145 9.3335 28.2486 9.3335C30.3522 9.3335 32.37 10.164 33.8595 11.6428C35.3375 13.1298 36.1666 15.1373 36.1666 17.2293C36.1666 19.3213 35.3375 21.3288 33.8595 22.8157L22.0766 34.5623C21.9349 34.7022 21.7669 34.8129 21.5821 34.8881C21.3973 34.9632 21.1995 35.0013 20.9999 35.0001Z" fill="#FA9D1B"/>
</svg>
